<svg xmlns="http://www.w3.org/2000/svg" width="55" height="19" viewBox="0 0 55 19"><g transform="translate(-118 -213)"><g transform="translate(118 213)" fill="#37c8ed"><path d="M 18.19098472595215 18.5 L 0.8090149760246277 18.5 L 9.5 1.118029952049255 L 18.19098472595215 18.5 Z" stroke="none"/><path d="M 9.5 2.23607063293457 L 1.618034362792969 18 L 17.38196563720703 18 L 9.5 2.23607063293457 M 9.5 0 L 19 19 L 0 19 L 9.5 0 Z" stroke="none" fill="#37c8ed"/></g><g transform="translate(154 232) rotate(180)" fill="#707070"><path d="M 18.19098472595215 18.5 L 0.8090149760246277 18.5 L 9.5 1.118029952049255 L 18.19098472595215 18.5 Z" stroke="none"/><path d="M 9.5 2.23607063293457 L 1.618034362792969 18 L 17.38196563720703 18 L 9.5 2.23607063293457 M 9.5 0 L 19 19 L 0 19 L 9.5 0 Z" stroke="none" fill="#707070"/></g><g transform="translate(144.5 226.514)" fill="#ff5d00"><path d="M 4.030581474304199 4.919234752655029 L 0.840656042098999 4.919234752655029 L 2.413879632949829 1.776415109634399 L 4.030581474304199 4.919234752655029 Z" stroke="none"/><path d="M 2.419958591461182 2.881280422210693 L 1.650093793869019 4.419234752655029 L 3.211099624633789 4.419234752655029 L 2.419958591461182 2.881280422210693 M 2.407803297042847 0.6715550422668457 L 4.850063323974609 5.419234752655029 L 0.03122329711914063 5.419234752655029 L 2.407803297042847 0.6715550422668457 Z" stroke="none" fill="#ff5d00"/></g><g transform="translate(158 213)" fill="#00ffb4" stroke="#00ffb4" stroke-width="1"><circle cx="7.5" cy="7.5" r="7.5" stroke="none"/><circle cx="7.5" cy="7.5" r="7" fill="none"/></g><g transform="translate(164 229)" fill="#707070" stroke="#707070" stroke-width="1"><circle cx="1.5" cy="1.5" r="1.5" stroke="none"/><circle cx="1.5" cy="1.5" r="1" fill="none"/></g></g></svg>